<?xml version="1.0" encoding="UTF-8"?>
<svg xmlns="http://www.w3.org/2000/svg" version="1.1" width="200" height="200" viewBox="0 0 200 200"><rect x="0" y="0" width="200" height="200" fill="#ffffff"/><g transform="scale(6.061)"><g transform="translate(0,0)"><path fill-rule="evenodd" d="M9 0L9 1L8 1L8 2L9 2L9 3L8 3L8 4L10 4L10 7L11 7L11 4L12 4L12 5L13 5L13 6L12 6L12 9L13 9L13 8L14 8L14 9L19 9L19 10L20 10L20 9L21 9L21 12L20 12L20 13L19 13L19 11L18 11L18 12L16 12L16 11L17 11L17 10L15 10L15 11L14 11L14 12L15 12L15 13L12 13L12 11L13 11L13 10L11 10L11 11L10 11L10 9L11 9L11 8L6 8L6 9L5 9L5 8L0 8L0 9L3 9L3 10L4 10L4 9L5 9L5 10L6 10L6 11L7 11L7 12L6 12L6 13L9 13L9 14L5 14L5 15L4 15L4 16L3 16L3 15L2 15L2 14L4 14L4 12L2 12L2 10L0 10L0 13L2 13L2 14L0 14L0 18L1 18L1 19L0 19L0 25L1 25L1 22L2 22L2 25L4 25L4 24L5 24L5 25L7 25L7 24L8 24L8 23L7 23L7 22L6 22L6 21L8 21L8 20L10 20L10 21L9 21L9 23L11 23L11 22L10 22L10 21L12 21L12 22L13 22L13 23L12 23L12 25L13 25L13 24L14 24L14 25L18 25L18 28L16 28L16 29L19 29L19 30L18 30L18 32L17 32L17 31L16 31L16 30L15 30L15 29L12 29L12 27L13 27L13 26L11 26L11 25L10 25L10 24L9 24L9 25L8 25L8 27L9 27L9 25L10 25L10 28L11 28L11 29L9 29L9 28L8 28L8 33L9 33L9 32L10 32L10 33L11 33L11 32L10 32L10 31L11 31L11 29L12 29L12 30L13 30L13 31L12 31L12 33L13 33L13 32L14 32L14 33L20 33L20 32L19 32L19 30L20 30L20 31L21 31L21 32L22 32L22 33L23 33L23 32L24 32L24 33L25 33L25 32L24 32L24 31L23 31L23 27L24 27L24 29L25 29L25 31L27 31L27 32L26 32L26 33L27 33L27 32L28 32L28 30L29 30L29 32L30 32L30 33L32 33L32 32L31 32L31 30L33 30L33 27L32 27L32 26L31 26L31 25L29 25L29 24L33 24L33 23L32 23L32 22L33 22L33 21L32 21L32 22L31 22L31 21L30 21L30 20L32 20L32 18L33 18L33 15L32 15L32 14L33 14L33 13L32 13L32 12L31 12L31 11L32 11L32 10L33 10L33 9L32 9L32 8L31 8L31 9L32 9L32 10L29 10L29 12L31 12L31 13L29 13L29 14L28 14L28 15L27 15L27 16L28 16L28 17L26 17L26 16L25 16L25 17L21 17L21 16L22 16L22 15L21 15L21 16L20 16L20 15L19 15L19 16L16 16L16 17L19 17L19 18L15 18L15 19L14 19L14 20L15 20L15 21L12 21L12 19L13 19L13 18L11 18L11 19L10 19L10 18L9 18L9 17L11 17L11 13L12 13L12 14L13 14L13 15L12 15L12 17L13 17L13 16L14 16L14 17L15 17L15 16L14 16L14 15L16 15L16 14L15 14L15 13L17 13L17 14L20 14L20 13L21 13L21 14L25 14L25 15L26 15L26 14L27 14L27 13L28 13L28 11L27 11L27 13L26 13L26 11L25 11L25 9L26 9L26 10L27 10L27 9L28 9L28 8L27 8L27 9L26 9L26 8L25 8L25 9L21 9L21 8L22 8L22 7L23 7L23 6L22 6L22 7L21 7L21 6L20 6L20 7L19 7L19 5L20 5L20 4L21 4L21 5L25 5L25 4L21 4L21 3L23 3L23 2L21 2L21 1L24 1L24 2L25 2L25 0L21 0L21 1L20 1L20 0L15 0L15 1L20 1L20 4L19 4L19 3L17 3L17 2L16 2L16 3L17 3L17 4L19 4L19 5L18 5L18 8L17 8L17 6L16 6L16 4L12 4L12 2L13 2L13 1L11 1L11 2L10 2L10 0ZM14 2L14 3L15 3L15 2ZM10 3L10 4L11 4L11 3ZM8 5L8 7L9 7L9 5ZM13 6L13 7L14 7L14 8L15 8L15 7L16 7L16 6L15 6L15 7L14 7L14 6ZM24 6L24 7L25 7L25 6ZM20 7L20 8L19 8L19 9L20 9L20 8L21 8L21 7ZM29 8L29 9L30 9L30 8ZM6 9L6 10L7 10L7 11L9 11L9 9L8 9L8 10L7 10L7 9ZM22 10L22 11L24 11L24 12L21 12L21 13L25 13L25 14L26 14L26 13L25 13L25 11L24 11L24 10ZM10 12L10 13L11 13L11 12ZM31 13L31 14L32 14L32 13ZM9 14L9 16L7 16L7 15L5 15L5 16L4 16L4 18L3 18L3 16L2 16L2 15L1 15L1 16L2 16L2 17L1 17L1 18L2 18L2 19L1 19L1 21L2 21L2 22L5 22L5 21L6 21L6 20L7 20L7 19L9 19L9 18L7 18L7 17L9 17L9 16L10 16L10 14ZM29 14L29 15L30 15L30 14ZM23 15L23 16L24 16L24 15ZM31 15L31 16L29 16L29 17L28 17L28 18L30 18L30 17L31 17L31 18L32 18L32 17L31 17L31 16L32 16L32 15ZM5 16L5 19L4 19L4 20L6 20L6 19L7 19L7 18L6 18L6 17L7 17L7 16ZM19 16L19 17L20 17L20 18L19 18L19 19L20 19L20 20L21 20L21 21L20 21L20 22L19 22L19 21L18 21L18 22L17 22L17 21L15 21L15 22L17 22L17 23L16 23L16 24L19 24L19 25L21 25L21 27L23 27L23 26L22 26L22 25L23 25L23 24L24 24L24 23L26 23L26 24L27 24L27 22L26 22L26 21L28 21L28 22L29 22L29 23L30 23L30 22L29 22L29 21L28 21L28 20L29 20L29 19L26 19L26 17L25 17L25 20L24 20L24 18L21 18L21 17L20 17L20 16ZM2 19L2 21L3 21L3 19ZM15 19L15 20L18 20L18 19ZM21 19L21 20L23 20L23 21L21 21L21 22L20 22L20 24L22 24L22 23L23 23L23 22L25 22L25 21L26 21L26 20L25 20L25 21L24 21L24 20L23 20L23 19ZM18 22L18 23L19 23L19 22ZM3 23L3 24L4 24L4 23ZM5 23L5 24L7 24L7 23ZM14 23L14 24L15 24L15 23ZM25 25L25 28L28 28L28 25ZM15 26L15 27L14 27L14 28L15 28L15 27L16 27L16 26ZM19 26L19 28L20 28L20 29L21 29L21 28L20 28L20 26ZM26 26L26 27L27 27L27 26ZM31 27L31 29L30 29L30 28L29 28L29 30L31 30L31 29L32 29L32 27ZM26 29L26 30L28 30L28 29ZM14 31L14 32L16 32L16 31ZM22 31L22 32L23 32L23 31ZM0 0L0 7L7 7L7 0ZM1 1L1 6L6 6L6 1ZM2 2L2 5L5 5L5 2ZM26 0L26 7L33 7L33 0ZM27 1L27 6L32 6L32 1ZM28 2L28 5L31 5L31 2ZM0 26L0 33L7 33L7 26ZM1 27L1 32L6 32L6 27ZM2 28L2 31L5 31L5 28Z" fill="#000000"/></g></g></svg>
